<svg width="20" height="20" viewBox="0 0 20 20" fill="none" xmlns="http://www.w3.org/2000/svg">
<path d="M11.707 7.70703L9.414 10L11.707 12.293C12.098 12.684 12.098 13.316 11.707 13.707C11.512 13.902 11.256 14 11 14C10.744 14 10.488 13.902 10.293 13.707L7.29303 10.707C6.90203 10.316 6.90203 9.68397 7.29303 9.29297L10.293 6.29297C10.684 5.90197 11.316 5.90197 11.707 6.29297C12.098 6.68397 12.098 7.31603 11.707 7.70703ZM20 10C20 15.514 15.514 20 10 20C4.486 20 0 15.514 0 10C0 4.486 4.486 0 10 0C15.514 0 20 4.486 20 10ZM18 10C18 5.589 14.411 2 10 2C5.589 2 2 5.589 2 10C2 14.411 5.589 18 10 18C14.411 18 18 14.411 18 10Z" fill="#5584AC"/>
</svg>
