<svg width="20" height="20" viewBox="0 0 20 20" fill="none" xmlns="http://www.w3.org/2000/svg">
<path d="M10 0C4.486 0 0 4.486 0 10C0 15.514 4.486 20 10 20C15.514 20 20 15.514 20 10C20 4.486 15.514 0 10 0ZM10 18C5.589 18 2 14.411 2 10C2 5.589 5.589 2 10 2C14.411 2 18 5.589 18 10C18 14.411 14.411 18 10 18ZM12.707 9.29297C13.098 9.68397 13.098 10.316 12.707 10.707L9.70697 13.707C9.51197 13.902 9.256 14 9 14C8.744 14 8.48803 13.902 8.29303 13.707C7.90203 13.316 7.90203 12.684 8.29303 12.293L10.586 10L8.29303 7.70703C7.90203 7.31603 7.90203 6.68397 8.29303 6.29297C8.68403 5.90197 9.31597 5.90197 9.70697 6.29297L12.707 9.29297Z" fill="#5584AC"/>
</svg>
