<svg width="20" height="17" viewBox="0 0 20 17" fill="none" xmlns="http://www.w3.org/2000/svg">
<path d="M15 0.125H5C2.243 0.125 0 2.368 0 5.125V11.125C0 13.882 2.243 16.125 5 16.125H15C17.757 16.125 20 13.882 20 11.125V5.125C20 2.368 17.757 0.125 15 0.125ZM5 2.125H15C16.178 2.125 17.189 2.81298 17.68 3.80298L11.664 7.81299C10.653 8.48699 9.347 8.48699 8.336 7.81299L2.32001 3.80298C2.81101 2.81298 3.822 2.125 5 2.125ZM15 14.125H5C3.346 14.125 2 12.779 2 11.125V5.99304L7.22601 9.47705C8.06901 10.0391 9.034 10.3201 10 10.3201C10.965 10.3201 11.931 10.0391 12.773 9.47705L18 5.99304V11.125C18 12.779 16.654 14.125 15 14.125Z" fill="white"/>
</svg>
