<svg width="24" height="24" viewBox="0 0 24 24" fill="none" xmlns="http://www.w3.org/2000/svg">
<path d="M9.28571 3H6.14286C5.30932 3 4.50992 3.33112 3.92052 3.92052C3.33112 4.50992 3 5.30932 3 6.14286V9.28571C3 9.56356 3.11037 9.83003 3.30684 10.0265C3.50331 10.223 3.76977 10.3333 4.04762 10.3333C4.32546 10.3333 4.59193 10.223 4.7884 10.0265C4.98486 9.83003 5.09524 9.56356 5.09524 9.28571V6.14286C5.09524 5.86501 5.20561 5.59854 5.40208 5.40208C5.59854 5.20561 5.86501 5.09524 6.14286 5.09524H9.28571C9.56356 5.09524 9.83003 4.98486 10.0265 4.7884C10.223 4.59193 10.3333 4.32546 10.3333 4.04762C10.3333 3.76977 10.223 3.50331 10.0265 3.30684C9.83003 3.11037 9.56356 3 9.28571 3Z" fill="#5584AC"/>
<path d="M19.949 10.3333C20.2269 10.3333 20.4934 10.223 20.6898 10.0265C20.8863 9.83003 20.9967 9.56356 20.9967 9.28571V6.14286C20.9967 5.30932 20.6655 4.50992 20.0761 3.92052C19.4867 3.33112 18.6873 3 17.8538 3H14.7109C14.4331 3 14.1666 3.11037 13.9702 3.30684C13.7737 3.50331 13.6633 3.76977 13.6633 4.04762C13.6633 4.32546 13.7737 4.59193 13.9702 4.7884C14.1666 4.98486 14.4331 5.09524 14.7109 5.09524H17.8538C18.1317 5.09524 18.3981 5.20561 18.5946 5.40208C18.7911 5.59854 18.9014 5.86501 18.9014 6.14286V9.28571C18.9014 9.56356 19.0118 9.83003 19.2083 10.0265C19.4047 10.223 19.6712 10.3333 19.949 10.3333Z" fill="#5584AC"/>
<path d="M9.28571 18.9014H6.14286C5.86501 18.9014 5.59854 18.7911 5.40208 18.5946C5.20561 18.3981 5.09524 18.1317 5.09524 17.8538V14.7109C5.09524 14.4331 4.98486 14.1666 4.7884 13.9702C4.59193 13.7737 4.32546 13.6633 4.04762 13.6633C3.76977 13.6633 3.50331 13.7737 3.30684 13.9702C3.11037 14.1666 3 14.4331 3 14.7109V17.8538C3 18.6873 3.33112 19.4867 3.92052 20.0761C4.50992 20.6655 5.30932 20.9967 6.14286 20.9967H9.28571C9.56356 20.9967 9.83003 20.8863 10.0265 20.6898C10.223 20.4934 10.3333 20.2269 10.3333 19.949C10.3333 19.6712 10.223 19.4047 10.0265 19.2083C9.83003 19.0118 9.56356 18.9014 9.28571 18.9014Z" fill="#5584AC"/>
<path d="M20.9967 14.7109C20.9967 14.4331 20.8863 14.1666 20.6898 13.9702C20.4934 13.7737 20.2269 13.6633 19.949 13.6633C19.6712 13.6633 19.4047 13.7737 19.2083 13.9702C19.0118 14.1666 18.9014 14.4331 18.9014 14.7109V17.8538C18.9014 18.1317 18.7911 18.3981 18.5946 18.5946C18.3981 18.7911 18.1317 18.9014 17.8538 18.9014H14.7109C14.4331 18.9014 14.1666 19.0118 13.9702 19.2083C13.7737 19.4047 13.6633 19.6712 13.6633 19.949C13.6633 20.2269 13.7737 20.4934 13.9702 20.6898C14.1666 20.8863 14.4331 20.9967 14.7109 20.9967H17.8538C18.6873 20.9967 19.4867 20.6655 20.0761 20.0761C20.6655 19.4867 20.9967 18.6873 20.9967 17.8538V14.7109Z" fill="#5584AC"/>
</svg>
