<svg width="42" height="48" viewBox="0 0 42 48" fill="none" xmlns="http://www.w3.org/2000/svg">
<g filter="url(#filter0_d_187_649)">
<path fill-rule="evenodd" clip-rule="evenodd" d="M9.50952 4.91588C3.1635 11.4703 3.1635 22.0973 9.5095 28.6518L20.1408 39.6324C20.6154 40.1225 21.3846 40.1225 21.8592 39.6324L32.4905 28.6518C38.8365 22.0973 38.8365 11.4703 32.4905 4.91588C26.1444 -1.63863 15.8555 -1.63863 9.50952 4.91588ZM13.8931 16.3456C13.8931 12.1871 17.157 8.81605 21.1831 8.81605C25.2093 8.81605 28.4732 12.1871 28.4732 16.3456C28.4732 20.504 25.2093 23.8751 21.1831 23.8751C17.157 23.8751 13.8931 20.504 13.8931 16.3456Z" fill="#F2994A"/>
<path d="M10.228 5.61147L10.228 5.61146C16.181 -0.537152 25.8189 -0.537161 31.7721 5.61147C37.7426 11.7782 37.7426 21.7894 31.7721 27.9562L21.1407 38.9368C21.0959 38.9831 21.0461 39 21 39C20.9539 39 20.904 38.9831 20.8592 38.9368L10.2279 27.9562C4.25735 21.7894 4.25735 11.7782 10.228 5.61147ZM21.1831 7.81605C16.5745 7.81605 12.8931 11.6656 12.8931 16.3456C12.8931 21.0256 16.5745 24.8751 21.1831 24.8751C25.7918 24.8751 29.4732 21.0256 29.4732 16.3456C29.4732 11.6656 25.7918 7.81605 21.1831 7.81605Z" stroke="white" stroke-width="2"/>
</g>
<defs>
<filter id="filter0_d_187_649" x="0.75" y="0" width="40.5" height="48" filterUnits="userSpaceOnUse" color-interpolation-filters="sRGB">
<feFlood flood-opacity="0" result="BackgroundImageFix"/>
<feColorMatrix in="SourceAlpha" type="matrix" values="0 0 0 0 0 0 0 0 0 0 0 0 0 0 0 0 0 0 127 0" result="hardAlpha"/>
<feOffset dy="4"/>
<feGaussianBlur stdDeviation="2"/>
<feComposite in2="hardAlpha" operator="out"/>
<feColorMatrix type="matrix" values="0 0 0 0 0 0 0 0 0 0 0 0 0 0 0 0 0 0 0.2 0"/>
<feBlend mode="normal" in2="BackgroundImageFix" result="effect1_dropShadow_187_649"/>
<feBlend mode="normal" in="SourceGraphic" in2="effect1_dropShadow_187_649" result="shape"/>
</filter>
</defs>
</svg>
