<svg width="33" height="40" viewBox="0 0 33 40" fill="none" xmlns="http://www.w3.org/2000/svg">
<path d="M5.47795 5.61147L5.47796 5.61146C11.431 -0.537151 21.0689 -0.53716 27.0221 5.61147C32.9926 11.7782 32.9926 21.7894 27.0221 27.9562L16.3907 38.9368C16.3459 38.9831 16.2961 39 16.25 39C16.2039 39 16.154 38.9831 16.1092 38.9368L5.47794 27.9562C-0.492651 21.7894 -0.492647 11.7782 5.47795 5.61147ZM16.4331 7.81605C11.8245 7.81605 8.14309 11.6656 8.14309 16.3456C8.14309 21.0256 11.8245 24.8751 16.4331 24.8751C21.0418 24.8751 24.7232 21.0256 24.7232 16.3456C24.7232 11.6656 21.0418 7.81605 16.4331 7.81605Z" fill="#9E00FF" stroke="white" stroke-width="2"/>
</svg>
