<svg width="372" height="773" viewBox="0 0 372 773" fill="none" xmlns="http://www.w3.org/2000/svg">
<g filter="url(#filter0_d_301_3071)">
<path d="M351.5 768.5V759.5V755.5L353.5 752L361.5 745.5V734C359 734 353.5 734 351.5 734C349.5 734 347.333 736 346.5 737L341.5 734V722L346.5 717L348 706.5L338.5 702.5L345 692L351 684.5L355 674C354.666 672.833 353.5 670.3 351.5 669.5C349 668.5 345.5 664 345.5 662C345.5 660.4 345.5 658.667 345.5 658C344.166 655.833 341.1 651.1 339.5 649.5C337.5 647.5 337 641 337 640C337 639.2 338 636.333 338.5 635L332.5 626.5L327 618C327 615.667 327 610.8 327 610C327 609.2 329 606.333 330 605L336 599V596.5L337 592L338.5 589.5L339.5 585C339.5 584 339.5 581.8 339.5 581C339.5 580 337.5 577.5 337 577C336.6 576.6 337.166 572.833 337.5 571L341.5 568.5L345.5 566L348 565L353.5 564L354 560V557L353.5 551.5V547.5L351 545L346.5 543.5V540L345 535V530L346.5 525.5L345 521.5L341.5 520.5C340.833 519.167 339.5 516.3 339.5 515.5C339.5 514.5 339.5 511 339.5 509.5C339.5 508 339.5 505.5 340.5 504C341.3 502.8 341.5 500.5 341.5 499.5L339.5 495.5C338.666 496 336.8 497.2 336 498C335 499 332 502 331 502C330.2 502 327.666 502 326.5 502L325 499.5L324 494.5C325.166 493.167 327.8 490.4 329 490C330.5 489.5 331 487 332 486C332.8 485.2 336 486.333 337.5 487C338.666 486.667 341.1 485.9 341.5 485.5C341.9 485.1 343.333 484.667 344 484.5C344 483.5 344 481.3 344 480.5C344 479.7 343.333 477.833 343 477L337.5 475L335 474.5L332.5 474L330 472.5L329 469L330 466L331 462.5C331.833 461.333 333.7 459 334.5 459C335.3 459 334.833 456.333 334.5 455H331L327.5 457.5L324 459H318.5C317.666 459.167 315.8 459.4 315 459C314.2 458.6 312.666 457.833 312 457.5C311.5 457.167 310.5 456.3 310.5 455.5C310.5 454.7 307.833 453.167 306.5 452.5L303 448.5V445.5L301.5 441.5C299.833 441.5 296.4 441.5 296 441.5C295.6 441.5 294.166 441.5 293.5 441.5V439C293.666 438.5 294.4 437.3 296 436.5C298 435.5 298.5 435.5 300 435C301.2 434.6 301.5 433.167 301.5 432.5C303 431.5 306.1 429.4 306.5 429C306.9 428.6 309.333 428.833 310.5 429L317 425.5V423C316.666 421.667 316 418.9 316 418.5C316 418 314 417 314 416C314 415.2 313.333 413.333 313 412.5L315 409.5C315.666 408.5 317.3 406.4 318.5 406C319.7 405.6 320 404.5 320 404L318.5 399.5C317.333 398.833 314.8 397.2 314 396C313 394.5 311 394 310.5 394C310 394 308.5 392.5 307.5 392.5C306.7 392.5 305.166 391.5 304.5 391C303.333 391.5 300.5 392.8 298.5 394C296 395.5 297 395.5 296.5 397.5C296 399.5 294 398.5 292.5 398.5C291 398.5 290.5 398 290 397.5C289.5 397 287.5 394 287.5 392.5C287.5 391 287.5 389.5 287.5 388.5C287.5 387.7 287.5 385.167 287.5 384V381C285.833 380.167 282.3 378.5 281.5 378.5C280.5 378.5 277.5 378.5 276 378.5C274.5 378.5 273 380 272 381C271 382 268 383.5 268 385C268 386.5 265.5 387 263 387C262.2 386.6 262.666 384.5 263 383.5L268 375V372H264L260 374L256 375C254.666 374.667 252 373.8 252 373C252 372.2 253 371 253.5 370.5C253.5 370 253.8 368.7 255 367.5C256 367 260 367.5 261 367.5C261.8 367.5 263.333 365.5 264 364.5C264.166 364.167 264.4 363.3 264 362.5C263.6 361.7 262.833 361.5 262.5 361.5H259L253.5 362.5L252 364.5C251.333 366 249.8 369.3 249 370.5C248.2 371.7 247.333 371 247 370.5L246 369L245 367.5L243.5 365.5V362.5L241.5 359L240 354.5L236 354C235.666 354.167 234.9 354.8 234.5 356C234 357.5 232 358 232 359C232 359.8 230 360 229 360C228.666 360.833 227.9 362.7 227.5 363.5C227 364.5 224.5 363.5 223.5 363.5C222.7 363.5 223.166 362.833 223.5 362.5L221 360L219.5 358C218.833 357.5 217.4 356.4 217 356C216.6 355.6 215.833 353.5 215.5 352.5V349V345.5V341H212.5C212.5 342.167 212.5 344.7 212.5 345.5C212.5 346.5 211.5 348 211.5 349C211.5 350 211 351.5 211 352.5C211 353.3 209.666 354.167 209 354.5L205.5 354L201 352.5L198 345.5C198 343.833 198 340.4 198 340C198 339.6 198 337.5 198 336.5L201 332.5C201.666 331.333 203 328.8 203 328C203 327.2 204.666 325.333 205.5 324.5V320.5C206.5 319.333 208.5 316.8 208.5 316C208.5 315.2 209.166 314.333 209.5 314L211 310C211 309.167 211 307.3 211 306.5C211 305.7 208.666 304.5 207.5 304L204.5 301.5L205.5 300L208.5 297.5L211 295L211.5 291L209.5 288L208.5 284L203 287C201.666 288.667 198.8 292.1 198 292.5C197.5 291.167 196.5 288.4 196.5 288C196.5 287.6 199.5 287.167 201 287C201.166 286.167 201.6 284.4 202 284C202.4 283.6 204.5 282.5 205.5 282C206.666 281.333 209.1 279.9 209.5 279.5C209.9 279.1 211.666 276 212.5 274.5L215.5 270L211 268H206.5L203 270L198 268V264.5H194L192 266.5C189.833 266.667 185.4 267 185 267C184.6 267 183.5 265.333 183 264.5L184 261.5C185.666 260.5 189 258.4 189 258C189 257.6 193.666 256.5 196 256L199.5 252.5L196 250.5H194C192.666 250.5 189.8 250.5 189 250.5C188.2 250.5 184 250.5 182 250.5L179 249L180.5 247L182 245.5V243C180.666 242.5 177.8 241.3 177 240.5C176.2 239.7 175.666 238.833 175.5 238.5L179 237C180.666 236.333 184.2 235 185 235C185.8 235 188 236.333 189 237L191.5 235L194 233.5L192.5 229C191.5 228.333 189.4 226.9 189 226.5C188.6 226.1 186.166 224 185 223V219.5L187.5 216V213.5L180.5 212C178 211.833 172.8 211.6 172 212C171.2 212.4 168.333 211.833 167 211.5C164.833 210.833 160.3 209.3 159.5 208.5C158.7 207.7 157.5 205.167 157 204L158 200.5L162 201.5H168L171.5 200.5C170.666 199.5 168.8 197.4 168 197C167.2 196.6 163.666 195.5 162 195C159.5 194.833 154.2 194.6 153 195C151.5 195.5 148.5 197.5 146.5 199C144.5 200.5 145 203.5 145 206.5C145 209.5 144.5 217 145 218C145.4 218.8 146.833 223 147.5 225C145.833 224.667 142.2 223.8 141 223C139.8 222.2 138.833 219.333 138.5 218L136 211L138.5 201.5V194V191C136.833 190.167 133.3 188.5 132.5 188.5C131.5 188.5 126 189 124.5 189.5C123 190 119 189.5 118 189.5C117 189.5 118 186 118 185.5C118 185.1 120.666 182.667 122 181.5L122.5 180C123.833 180 126.7 180 127.5 180C128.3 180 129.5 182.333 130 183.5H132.5L133.5 180V175.5L129 173L124.5 172L122 169.5L116.5 173C115 173.167 111.9 173.5 111.5 173.5C111.1 173.5 109 170.167 108 168.5L106.5 162.5C106 161 104.9 158 104.5 158C104.1 158 102.666 156.333 102 155.5C102 154.5 101.5 152.8 99.4996 154C97.4996 155.2 92.9996 158.167 90.9996 159.5C90.4996 161.333 88.9996 164.2 86.9996 161C84.9996 157.8 85.1663 153 85.4996 151L88.5 141L83 137C81.3334 134.667 78 129.7 78 128.5C78 127.3 79.3334 123.333 80 121.5C81 119.5 83 115 83 113C83 110.5 84 106.5 81 105.5C78.6 104.7 71.3334 102.167 68 101C66.3334 100.667 63.5 99.4 65.5 97C67.5 94.6 69.9998 91.6667 70.9997 90.5C70.9995 89.1667 70.6993 86.2 69.4997 85C68.3 83.8 63.3331 79.8333 60.9997 78C60.1663 77.8333 58.4997 77.2 58.4997 76C58.4997 74.5 58.4997 69.5 56.9997 68C55.4997 66.5 47.4997 60.5 45.9997 60C44.4997 59.5 39.9997 59.5 38.4997 58.5C36.9997 57.5 33.9997 54 33.4997 52C32.9997 50 25.4997 47.5 24.4997 47.5C23.6997 47.5 21.833 43.8333 20.9997 42C22.1663 41.3333 24.4997 39.7 24.4997 38.5C24.4997 37 20.9997 30.5 20.9997 29.5C20.9997 28.5 15.4997 25 13.9997 24.5C12.4997 24 7.49966 25 6.49966 21.5C5.49966 18 9.49966 15 9.99966 14C10.4997 13 9.99966 11 9.99966 10C9.99966 9 5.5 5 5.5 3.5C5.5 2.3 5.5 -3.33333 5.5 -6" stroke="#0FB7E6" stroke-width="3"/>
</g>
<g filter="url(#filter1_d_301_3071)">
<path d="M12.0003 -4L15.0003 9V16.5C13.0003 17.3333 9.60027 19.4 12.0003 21C15.0003 23 27 28.5 28 29.5C28.8 30.3 29.3333 33.8333 29.5 35.5L28 43L33 48.5L41 54L58 61.5L56.5 67C56 69.5 55.3 75 56.5 77C57.7 79 62.6667 84.8333 65 87.5L75 93L80.5 97L77 101C78.1667 103.333 80.5 108.4 80.5 110C80.5 111.6 82.8333 118.667 84 122V130.5L90 140.5L91.5 149L90 152.5L93 158.5L103.5 156.5L107.5 164.5L114.5 170.5L120 169H123L127 170L129 174.5L128 179C127 179.667 124.9 181 124.5 181C124.1 181 122.333 184 121.5 185.5C121.333 186.333 121.2 188 122 188C122.8 188 127.667 188 130 188L138.5 192L140.5 193L139.5 197L139 202L138.5 208V213.5L139.5 216L146 220C146.167 220.333 146.5 220.8 146.5 220C146.5 219 148.5 213.5 148.5 212.5C148.5 211.5 151 206 151 205C151 204 152.5 198 153 197.5C153.5 197 157.5 193 158.5 192C159.3 191.2 164.167 190.667 166.5 190.5L174 193C174.167 193.833 174.3 195.5 173.5 195.5C172.5 195.5 164.5 197.5 163.5 197.5C162.5 197.5 160.5 198 161.5 199C162.5 200 166.5 203 167 204C167.5 205 169 206.5 170 207C171 207.5 178.5 207.5 179 208C179.4 208.4 183.5 209.5 185.5 210C186.5 210.333 188.7 211.3 189.5 212.5C190.5 214 191.5 219 191.5 219.5C191.5 219.9 191.5 223.333 191.5 225L191 230C190.667 230.833 189.7 232.5 188.5 232.5C187.3 232.5 183.667 232.833 182 233L181.5 234L182 242C183.167 242.5 185.5 243.6 185.5 244C185.5 244.5 191.5 246 192 246C192.4 246 195.167 246.667 196.5 247L198 249L194.5 254C192.833 254.5 189.4 255.6 189 256C188.5 256.5 188 257.5 188.5 258.5C189 259.5 191 262 192 262C192.8 262 199.333 261.333 202.5 261L207.5 264L210.5 267.5L210 273L206 276.5L205 281.5L200.5 284.5H195.5L196.5 289.5L209.5 287.5L211 284L212 288.5V294.5C210.833 295.333 208.6 297.2 209 298C209.4 298.8 210.5 302 211 303.5L213 309V314L210 318.5L205 328L202 333.5L200.5 339.5L202 345C202.333 346.5 203.1 349.6 203.5 350C203.9 350.4 205.333 351.833 206 352.5C207.167 352 209.5 350.9 209.5 350.5C209.5 350.1 214.167 347.667 216.5 346.5L220 345.5L225.5 348L230 352.5L232.5 354.5L238.5 354C240 353.167 243 351.4 243 351C243 350.6 243.667 348.833 244 348L247.5 352.5L249 357C249.5 357.833 250.6 359.5 251 359.5C251.4 359.5 254.5 359.5 256 359.5L261 357C261.833 356.667 263.7 356.2 264.5 357C265.3 357.8 267.167 359 268 359.5C268 360.167 268 361.6 268 362C268 362.5 265.5 365.5 265.5 366C265.5 366.4 264.833 368.167 264.5 369L269.5 371.5C269 373.667 267.9 378.1 267.5 378.5C267 379 267.5 383.5 268.5 383.5C269.5 383.5 273.5 381 273.5 380.5C273.5 380 280.5 376.5 281 376.5C281.4 376.5 284.5 376.833 286 377C287.833 377.833 291.5 379.7 291.5 380.5C291.5 381.5 293 386.5 293.5 387C294 387.5 296 388.5 296.5 389C296.9 389.4 300.667 390.167 302.5 390.5H309.5C312 390.333 317.1 390 317.5 390C317.9 390 320 391 321 391.5L322.5 398.5L321 401L317.5 408.5C317.333 410 317.1 413.2 317.5 414C318 415 318.5 418 318.5 418.5C318.5 419 317.5 424 317.5 424.5C317.5 425 312 427.5 311 428C310 428.5 306.5 431.5 305.5 432C304.5 432.5 301 434 301 435C301 435.8 302.333 439.333 303 441L313.5 446.5C313.833 447.667 314.6 450.1 315 450.5C315.5 451 318 453.5 319 454C320 454.5 325 455.5 325.5 455.5C326 455.5 327.5 453 328 452C328.5 451 331 448.5 332 448C332.8 447.6 335.667 447.833 337 448C337 449.667 337 453.1 337 453.5C337 454 335.5 459 335 460C334.5 461 334 465 333.5 466C333 467 334 470.5 334.5 471C335 471.5 339.5 471.5 340.5 472C341.3 472.4 344.833 474.5 346.5 475.5C346.167 476.5 345.6 478.6 346 479C346.4 479.4 346.833 481.833 347 483V485.5C345.167 486 341.6 487 342 487C342.4 487 339.5 488.333 338 489C337 490 335 492.1 335 492.5C335 493 332.5 495 333.5 495.5C334.5 496 338.5 498 339.5 497.5C340.5 497 346.5 494.5 346.5 493.5C346.5 492.7 348.167 494.833 349 496L347.5 504C347.333 505.167 347.1 507.7 347.5 508.5C347.9 509.3 348 511.5 348 512.5L351 520L351.5 527L349 537.5L350.5 544L353.5 546L355.5 551L353 566L351 570.5C350 570.667 348 571.1 348 571.5C348 572 347 574.5 346.5 575C346.1 575.4 343.333 579.167 342 581L343.5 586L344.5 590C344.5 591.5 344.5 594.6 344.5 595C344.5 595.4 343.5 598.5 343 600L339.5 601V602.5L336.5 604.5V610C336.667 612.5 337 617.6 337 618C337 618.4 338.667 624.5 339.5 627.5L338.5 630V635.5L343.5 642.5C344.667 644.333 347.1 648 347.5 648C347.9 648 351.667 652 353.5 654C353.833 655.333 354.8 658.1 356 658.5C357.2 658.9 358.5 661.333 359 662.5C358 663.333 356 665.2 356 666C356 666.8 355.667 668.333 355.5 669C355.667 669.5 356.2 670.6 357 671C357.8 671.4 360.333 673.167 361.5 674L360 686C359 687.167 357 689.6 357 690C357 690.5 356 692.5 357 693.5C357.8 694.3 361.667 696.833 363.5 698L364.5 703.5L359 706.5L355.5 707L350.5 711L353 713L352 719.5C350.667 721.333 348.2 725.2 349 726C350 727 352 728.5 353 729C354 729.5 357 731 358 731C358.8 731 361.333 732.667 362.5 733.5C363.5 734.333 365.5 736.2 365.5 737C365.5 738 366.5 744 366 744C365.6 744 364.167 746 363.5 747L361 750C359.167 751.5 355.5 754.6 355.5 755C355.5 755.4 355.833 758.833 356 760.5L357 764.5" stroke="#0FB7E6" stroke-width="2"/>
</g>
<defs>
<filter id="filter0_d_301_3071" x="0" y="-10" width="367" height="782.5" filterUnits="userSpaceOnUse" color-interpolation-filters="sRGB">
<feFlood flood-opacity="0" result="BackgroundImageFix"/>
<feColorMatrix in="SourceAlpha" type="matrix" values="0 0 0 0 0 0 0 0 0 0 0 0 0 0 0 0 0 0 127 0" result="hardAlpha"/>
<feOffset/>
<feGaussianBlur stdDeviation="2"/>
<feComposite in2="hardAlpha" operator="out"/>
<feColorMatrix type="matrix" values="0 0 0 0 0.0588235 0 0 0 0 0.717647 0 0 0 0 0.901961 0 0 0 1 0"/>
<feBlend mode="normal" in2="BackgroundImageFix" result="effect1_dropShadow_301_3071"/>
<feBlend mode="normal" in="SourceGraphic" in2="effect1_dropShadow_301_3071" result="shape"/>
</filter>
<filter id="filter1_d_301_3071" x="6.1748" y="-8.2251" width="364.965" height="776.968" filterUnits="userSpaceOnUse" color-interpolation-filters="sRGB">
<feFlood flood-opacity="0" result="BackgroundImageFix"/>
<feColorMatrix in="SourceAlpha" type="matrix" values="0 0 0 0 0 0 0 0 0 0 0 0 0 0 0 0 0 0 127 0" result="hardAlpha"/>
<feOffset/>
<feGaussianBlur stdDeviation="2"/>
<feComposite in2="hardAlpha" operator="out"/>
<feColorMatrix type="matrix" values="0 0 0 0 0.0588235 0 0 0 0 0.717647 0 0 0 0 0.901961 0 0 0 1 0"/>
<feBlend mode="normal" in2="BackgroundImageFix" result="effect1_dropShadow_301_3071"/>
<feBlend mode="normal" in="SourceGraphic" in2="effect1_dropShadow_301_3071" result="shape"/>
</filter>
</defs>
</svg>
