<svg width="17" height="20" viewBox="0 0 17 20" fill="none" xmlns="http://www.w3.org/2000/svg">
<path d="M8.5 11C11.533 11 14 8.532 14 5.5C14 2.468 11.533 0 8.5 0C5.467 0 3 2.468 3 5.5C3 8.532 5.467 11 8.5 11ZM8.5 2C10.43 2 12 3.57 12 5.5C12 7.43 10.43 9 8.5 9C6.57 9 5 7.43 5 5.5C5 3.57 6.57 2 8.5 2ZM16.5 15.967V16.978C16.5 17.974 16.136 18.929 15.475 19.667C15.277 19.888 15.004 20 14.729 20C14.492 20 14.253 19.916 14.062 19.745C13.65 19.377 13.616 18.744 13.984 18.333C14.316 17.962 14.499 17.48 14.499 16.978V15.967C14.499 14.568 13.572 13.358 12.246 13.025C12.054 12.977 11.849 13.001 11.685 13.095C9.704 14.197 7.28597 14.191 5.32397 13.101C5.15097 13.002 4.947 12.977 4.755 13.025C3.426 13.358 2.5 14.568 2.5 15.967V16.978C2.5 17.481 2.68301 17.962 3.01501 18.333C3.38301 18.744 3.34801 19.377 2.93701 19.745C2.52501 20.114 1.89302 20.078 1.52502 19.667C0.864024 18.929 0.5 17.974 0.5 16.978V15.967C0.5 13.65 2.04903 11.642 4.26703 11.085C4.95403 10.91 5.69803 11.011 6.30603 11.358C7.65503 12.106 9.33598 12.1121 10.704 11.3521C11.303 11.0091 12.047 10.909 12.735 11.084C14.951 11.642 16.5 13.649 16.5 15.967Z" fill="#5584AC"/>
</svg>
